<svg xmlns="http://www.w3.org/2000/svg" xmlns:xlink="http://www.w3.org/1999/xlink" viewBox="0 0 64 64" width="256" height="256"><defs><linearGradient id="a" x1="13" x2="13" y1="4" y2="11" gradientUnits="userSpaceOnUse"><stop offset="0" stop-color="#f2756b" class="stopColorf2756b svgShape"></stop><stop offset="1" stop-color="#c44747" class="stopColorc44747 svgShape"></stop></linearGradient><linearGradient id="b" x1="13" x2="13" y1="4" y2="6" gradientUnits="userSpaceOnUse"><stop offset="0" stop-color="#ffd270" class="stopColorffd270 svgShape"></stop><stop offset="1" stop-color="#f79f63" class="stopColorf79f63 svgShape"></stop></linearGradient><linearGradient id="f" y1="21" y2="28" xlink:href="#a"></linearGradient><linearGradient id="g" y1="26" y2="28" xlink:href="#b"></linearGradient><linearGradient id="h" x1="7" x2="7" y1="7" y2="13" xlink:href="#a"></linearGradient><linearGradient id="i" x1="5" x2="5" y1="6" y2="10" xlink:href="#b"></linearGradient><linearGradient id="j" x1="18.889" x2="18.889" y1="19" y2="24.778" xlink:href="#a"></linearGradient><linearGradient id="k" x1="21" x2="21" y1="22" y2="26" xlink:href="#b"></linearGradient><linearGradient id="l" x1="19" x2="19" y1="7" y2="13" xlink:href="#a"></linearGradient><linearGradient id="m" x1="21" x2="21" y1="6" y2="10" xlink:href="#b"></linearGradient><linearGradient id="n" x1="7.111" x2="7.111" y1="19" y2="24.778" xlink:href="#a"></linearGradient><linearGradient id="o" x1="5" x2="5" y1="22" y2="26" xlink:href="#b"></linearGradient><linearGradient id="p" x1="21.5" x2="21.5" y1="15" y2="17" xlink:href="#a"></linearGradient><linearGradient id="q" x1="24" x2="24" y1="14" y2="18" xlink:href="#b"></linearGradient><linearGradient id="r" x1="4.5" x2="4.5" y1="15" y2="17" xlink:href="#a"></linearGradient><linearGradient id="s" x1="2" x2="2" y1="14" y2="18" xlink:href="#b"></linearGradient><linearGradient id="t" y1="9" y2="23" xlink:href="#a"></linearGradient><linearGradient id="u" x1="10" x2="10" y1="14" y2="16" xlink:href="#b"></linearGradient><linearGradient id="v" x1="14" x2="14" y1="12" y2="14" xlink:href="#b"></linearGradient><linearGradient id="w" x1="16" x2="16" y1="16" y2="18" xlink:href="#b"></linearGradient><linearGradient id="x" x1="12" x2="12" y1="18" y2="20" xlink:href="#b"></linearGradient><linearGradient id="y" x1="14.5" x2="14.5" y1="34" y2="36" xlink:href="#a"></linearGradient><linearGradient id="z" y1="34" y2="36" xlink:href="#b"></linearGradient><linearGradient id="A" x1="23.5" x2="23.5" y1="34" y2="36" xlink:href="#a"></linearGradient><linearGradient id="B" x1="25" x2="25" y1="34" y2="36" xlink:href="#b"></linearGradient><linearGradient id="C" x1="19" x2="19" y1="28" y2="33" xlink:href="#a"></linearGradient><linearGradient id="D" x1="19" x2="19" y1="28" y2="30" xlink:href="#b"></linearGradient><linearGradient id="E" x1="19" x2="19" y1="37" y2="42" xlink:href="#a"></linearGradient><linearGradient id="F" x1="19" x2="19" y1="40" y2="42" xlink:href="#b"></linearGradient><linearGradient id="G" x1="19" x2="19" y1="31" y2="39" xlink:href="#a"></linearGradient><linearGradient id="H" x1="22" x2="22" y1="30" y2="34" xlink:href="#a"></linearGradient><linearGradient id="I" x1="23" x2="23" y1="30" y2="32" xlink:href="#b"></linearGradient><linearGradient id="J" x1="16" x2="16" y1="30" y2="34" xlink:href="#a"></linearGradient><linearGradient id="K" x1="15" x2="15" y1="30" y2="32" xlink:href="#b"></linearGradient><linearGradient id="L" x1="16" x2="16" y1="36" y2="40" xlink:href="#a"></linearGradient><linearGradient id="M" x1="15" x2="15" y1="38" y2="40" xlink:href="#b"></linearGradient><linearGradient id="N" x1="22" x2="22" y1="36" y2="40" xlink:href="#a"></linearGradient><linearGradient id="O" x1="23" x2="23" y1="38" y2="40" xlink:href="#b"></linearGradient><linearGradient id="P" x1="20" x2="20" y1="33" y2="35" xlink:href="#b"></linearGradient><linearGradient id="Q" x1="18" x2="18" y1="35" y2="37" xlink:href="#b"></linearGradient><linearGradient id="c" x1="36" x2="36" y1="55" y2="63" gradientUnits="userSpaceOnUse"><stop offset="0" stop-color="#7f7f99" class="stopColor7f7f99 svgShape"></stop><stop offset="1" stop-color="#515072" class="stopColor515072 svgShape"></stop></linearGradient><linearGradient id="R" x1="30.5" x2="30.5" y1="31" y2="34" xlink:href="#c"></linearGradient><linearGradient id="S" x1="32.5" x2="32.5" y1="33" y2="36" xlink:href="#c"></linearGradient><linearGradient id="T" x1="28.5" x2="28.5" y1="29" y2="32" xlink:href="#c"></linearGradient><linearGradient id="U" x1="58.5" x2="58.5" y1="1" y2="10" gradientTransform="rotate(45 58.5 5.5)" xlink:href="#c"></linearGradient><linearGradient id="d" x1="33" x2="33" y1="25" y2="35" gradientTransform="rotate(45 33 30)" gradientUnits="userSpaceOnUse"><stop offset="0" stop-color="#e4e9f4" class="stopColore4e9f4 svgShape"></stop><stop offset="1" stop-color="#bccbe2" class="stopColorbccbe2 svgShape"></stop></linearGradient><linearGradient id="V" x1="36.5" x2="36.5" y1="20.03" y2="33" xlink:href="#c"></linearGradient><linearGradient id="W" x1="47.5" x2="47.5" y1="3" y2="29" xlink:href="#d"></linearGradient><linearGradient id="X" x1="55.057" x2="25.817" y1="58" y2="58" gradientUnits="userSpaceOnUse"><stop offset="0" stop-color="#6a6a80" class="stopColor6a6a80 svgShape"></stop><stop offset="1" stop-color="#3f3e59" class="stopColor3f3e59 svgShape"></stop></linearGradient><linearGradient id="Y" x1="37" x2="37" y1="23" y2="59" xlink:href="#d"></linearGradient><linearGradient id="e" x1="19.09" x2="19.09" y1="50" y2="48" gradientUnits="userSpaceOnUse"><stop offset="0" stop-color="#7c8eb8" class="stopColor7c8eb8 svgShape"></stop><stop offset="1" stop-color="#5e7ba6" class="stopColor5e7ba6 svgShape"></stop></linearGradient><linearGradient id="Z" x1="20" x2="20" y1="45" y2="49" xlink:href="#d"></linearGradient><linearGradient id="aa" x1="50" x2="50" y1="16" y2="27.54" xlink:href="#e"></linearGradient><linearGradient id="ab" x1="51" x2="51" y1="15" y2="27" xlink:href="#c"></linearGradient><linearGradient id="ac" x1="51" x2="51" y1="19" y2="23" xlink:href="#d"></linearGradient></defs><path fill="url(#a)" d="M13,11a1,1,0,0,1-1-1V5a1,1,0,0,1,2,0v5A1,1,0,0,1,13,11Z"></path><path fill="url(#b)" d="M14,6H12a1,1,0,0,1,0-2h2a1,1,0,0,1,0,2Z"></path><path fill="url(#f)" d="M13,28a1,1,0,0,1-1-1V22a1,1,0,0,1,2,0v5A1,1,0,0,1,13,28Z"></path><path fill="url(#g)" d="M14,28H12a1,1,0,0,1,0-2h2a1,1,0,0,1,0,2Z"></path><path fill="url(#h)" d="M9,13a1,1,0,0,1-.707-.293l-4-4A1,1,0,1,1,5.707,7.293l4,4A1,1,0,0,1,9,13Z"></path><path fill="url(#i)" d="M4,10a1,1,0,0,1-.707-1.707l2-2A1,1,0,0,1,6.707,7.707l-2,2A1,1,0,0,1,4,10Z"></path><path fill="url(#j)" d="M20.778,24.778a1,1,0,0,1-.707-.293l-3.778-3.778a1,1,0,0,1,1.414-1.414l3.778,3.778a1,1,0,0,1-.707,1.707Z"></path><path fill="url(#k)" d="M20,26a1,1,0,0,1-.707-1.707l2-2a1,1,0,0,1,1.414,1.414l-2,2A1,1,0,0,1,20,26Z"></path><path fill="url(#l)" d="M17,13a1,1,0,0,1-.707-1.707l4-4a1,1,0,1,1,1.414,1.414l-4,4A1,1,0,0,1,17,13Z"></path><path fill="url(#m)" d="M22,10a1,1,0,0,1-.707-.293l-2-2a1,1,0,0,1,1.414-1.414l2,2A1,1,0,0,1,22,10Z"></path><path fill="url(#n)" d="M5.222,24.778a1,1,0,0,1-.707-1.707l3.778-3.778a1,1,0,0,1,1.414,1.414L5.929,24.485A1,1,0,0,1,5.222,24.778Z"></path><path fill="url(#o)" d="M6,26a1,1,0,0,1-.707-.293l-2-2a1,1,0,0,1,1.414-1.414l2,2A1,1,0,0,1,6,26Z"></path><path fill="url(#p)" d="M24,17H19a1,1,0,0,1,0-2h5a1,1,0,0,1,0,2Z"></path><path fill="url(#q)" d="M24,18a1,1,0,0,1-1-1V15a1,1,0,0,1,2,0v2A1,1,0,0,1,24,18Z"></path><path fill="url(#r)" d="M7,17H2a1,1,0,0,1,0-2H7a1,1,0,0,1,0,2Z"></path><path fill="url(#s)" d="M2,18a1,1,0,0,1-1-1V15a1,1,0,0,1,2,0v2A1,1,0,0,1,2,18Z"></path><circle cx="13" cy="16" r="7" fill="url(#t)"></circle><circle cx="10" cy="15" r="1" fill="url(#u)"></circle><circle cx="14" cy="13" r="1" fill="url(#v)"></circle><circle cx="16" cy="17" r="1" fill="url(#w)"></circle><circle cx="12" cy="19" r="1" fill="url(#x)"></circle><path fill="url(#y)" d="M17,35a1,1,0,0,0-1-1H13a1,1,0,0,0,0,2h3A1,1,0,0,0,17,35Z"></path><circle cx="13" cy="35" r="1" fill="url(#z)"></circle><path fill="url(#A)" d="M25,34H22a1,1,0,0,0,0,2h3a1,1,0,0,0,0-2Z"></path><circle cx="25" cy="35" r="1" fill="url(#B)"></circle><path fill="url(#C)" d="M19,33a1,1,0,0,0,1-1V29a1,1,0,0,0-2,0v3A1,1,0,0,0,19,33Z"></path><circle cx="19" cy="29" r="1" fill="url(#D)"></circle><path fill="url(#E)" d="M19,37a1,1,0,0,0-1,1v3a1,1,0,0,0,2,0V38A1,1,0,0,0,19,37Z"></path><circle cx="19" cy="41" r="1" fill="url(#F)"></circle><circle cx="19" cy="35" r="4" fill="url(#G)"></circle><path fill="url(#H)" d="M20.293,33.707a1,1,0,0,0,1.414,0l2-2a1,1,0,0,0-1.414-1.414l-2,2A1,1,0,0,0,20.293,33.707Z"></path><circle cx="23" cy="31" r="1" fill="url(#I)"></circle><path fill="url(#J)" d="M16.293,33.707a1,1,0,0,0,1.414-1.414l-2-2a1,1,0,0,0-1.414,1.414Z"></path><circle cx="15" cy="31" r="1" fill="url(#K)"></circle><path fill="url(#L)" d="M17.707,36.293a1,1,0,0,0-1.414,0l-2,2a1,1,0,1,0,1.414,1.414l2-2A1,1,0,0,0,17.707,36.293Z"></path><circle cx="15" cy="39" r="1" fill="url(#M)"></circle><path fill="url(#N)" d="M21.707,36.293a1,1,0,0,0-1.414,1.414l2,2a1,1,0,0,0,1.414-1.414Z"></path><circle cx="23" cy="39" r="1" fill="url(#O)"></circle><circle cx="20" cy="34" r="1" fill="url(#P)"></circle><circle cx="18" cy="36" r="1" fill="url(#Q)"></circle><path fill="url(#c)" d="M55,63H17a8.014,8.014,0,0,1,2.34-5.66,8.454,8.454,0,0,1,.84-.73A7.982,7.982,0,0,1,25,55H47a7.759,7.759,0,0,1,2.42.38A7.978,7.978,0,0,1,55,63Z"></path><path fill="url(#R)" d="M30,34a1,1,0,0,1-.707-1.707l1-1a1,1,0,0,1,1.414,1.414l-1,1A1,1,0,0,1,30,34Z"></path><path fill="url(#S)" d="M32,36a1,1,0,0,1-.707-1.707l1-1a1,1,0,0,1,1.414,1.414l-1,1A1,1,0,0,1,32,36Z"></path><path fill="url(#T)" d="M28,32a1,1,0,0,1-.707-1.707l1-1a1,1,0,0,1,1.414,1.414l-1,1A1,1,0,0,1,28,32Z"></path><rect width="7.071" height="5.657" x="54.964" y="2.672" fill="url(#U)" transform="rotate(-45 58.5 5.5)"></rect><rect width="5.657" height="8.485" x="30.172" y="25.757" fill="url(#d)" transform="rotate(-45 33 30)"></rect><polygon fill="url(#V)" points="43 28 38 33 30 25 34 21 35.03 20.03 43 28"></polygon><polygon fill="url(#W)" points="61 11 42 29 34 21 35.03 20.03 53 3 61 11"></polygon><path fill="url(#X)" d="M49.42,55.38a23.958,23.958,0,0,1-28,2.05c-.42-.26-.84-.53-1.24-.82A7.982,7.982,0,0,1,25,55h2.76A18.922,18.922,0,0,0,39.9,55H47A7.759,7.759,0,0,1,49.42,55.38Z"></path><path fill="url(#Y)" d="M59,35A23.991,23.991,0,0,1,16.28,50c-.26-.33-.52-.66-.76-1L15,48h7v1c.38.35.77.68,1.18,1A18.991,18.991,0,0,0,52.3,27.54c-.09-.21-.18-.42-.28-.63L51,26l4.9-2.94L56,23l.26.89A23.755,23.755,0,0,1,59,35Z"></path><path fill="url(#e)" d="M23.18,50h-6.9c-.26-.33-.52-.66-.76-1L15,48h7v1C22.38,49.35,22.77,49.68,23.18,50Z"></path><rect width="22" height="4" x="9" y="45" fill="url(#Z)" rx="1"></rect><path fill="url(#aa)" d="M56,22a5.293,5.293,0,0,1-.1,1.06,5.873,5.873,0,0,1-1.19,2.65,5.967,5.967,0,0,1-2.41,1.83c-.09-.21-.18-.42-.28-.63A5.691,5.691,0,0,1,51,27a5.99,5.99,0,0,1-4.61-2.16l-1.03.97A6,6,0,1,1,56,22Z"></path><circle cx="51" cy="21" r="6" fill="url(#ab)"></circle><circle cx="51" cy="21" r="2" fill="url(#ac)"></circle></svg>