<svg id="SvgjsSvg1133" width="256" height="256" xmlns="http://www.w3.org/2000/svg" version="1.1" xmlns:xlink="http://www.w3.org/1999/xlink" xmlns:svgjs="http://svgjs.com/svgjs"><defs id="SvgjsDefs1134"></defs><g id="SvgjsG1135"><svg xmlns="http://www.w3.org/2000/svg" viewBox="0 0 64 64" width="256" height="256"><g data-name="24-Microscope"><path fill="#006fdb" d="M17,59l5.463-10.925A5.561,5.561,0,0,1,27.438,45h0A5.562,5.562,0,0,1,33,50.562V59Z" class="color006fdb svgShape"></path><circle cx="28" cy="50" r="2" fill="#2b2b37" class="color2b2b37 svgShape"></circle><path fill="#2b2b37" d="M24.73 30A2 2 0 1 1 23 29 1.995 1.995 0 0 1 24.73 30zM24 19a2.995 2.995 0 0 1 .97 5.83A2.826 2.826 0 0 1 24 25a3 3 0 0 1-3-3 2.955 2.955 0 0 1 .15-.95 3.028 3.028 0 0 1 1.31-1.63A3.087 3.087 0 0 1 24 19z" class="color2b2b37 svgShape"></path><polygon fill="#edf4fa" points="46 47 47 50 38 54 37 51 46 47" class="coloredf4fa svgShape"></polygon><path fill="#edf4fa" d="M24.97,24.83,27.37,30H24.73A2,2,0,0,0,21,31l-1.25.94A6.872,6.872,0,0,0,17,37.44a6.5,6.5,0,0,0,.11,1.24c.37,1.95,1.78,7.5,5.89,8.32l.09.09a5.852,5.852,0,0,0-.63.98L20,53S10,48,10,34c0-8,6-13,6-13h5l.15.05A2.955,2.955,0,0,0,21,22a3,3,0,0,0,3,3A2.826,2.826,0,0,0,24.97,24.83Z" class="coloredf4fa svgShape"></path><path fill="#a8b7d4" d="M45.66,41.28a.944.944,0,0,1-.44,1.25l-5,2.38A.906.906,0,0,1,39,44.46l-.68-1.48,6.7-3.12Z" class="colora8b7d4 svgShape"></path><polygon fill="#006fdb" points="45.02 39.86 38.32 42.98 34 45 32.69 41.79 47.81 34.98 49 38 45.02 39.86" class="color006fdb svgShape"></polygon><polygon fill="#393d48" points="24.03 1 27.47 8.42 21.94 11.02 18.5 3.6 24.03 1" class="color393d48 svgShape"></polygon><polygon fill="#393d48" points="36.06 26.98 39.5 34.4 33.97 37 30.53 29.58 36.06 26.98" class="color393d48 svgShape"></polygon><path fill="#393d48" d="M54,63H14a4.025,4.025,0,0,1,1.17-2.83,4.1,4.1,0,0,1,1.86-1.05A3.906,3.906,0,0,1,18,59H50A4,4,0,0,1,54,63Z" class="color393d48 svgShape"></path><path fill="#006fdb" d="M24.97,24.83A2.995,2.995,0,0,0,24,19a3.087,3.087,0,0,0-1.54.42l-3.29-7.1,2.77-1.3,5.53-2.6,2.76-1.29,8.6,18.55-2.77,1.3-5.53,2.6-2.76,1.29-.4-.87Z" class="color006fdb svgShape"></path><path fill="#2b2b37" d="M24.838 8.212a2 2 0 0 1-2.626-1.05L20.319 2.745 18.5 3.6l3.44 7.42 5.53-2.6-.517-1.114zM34.687 30.157L37 29 36.06 26.98l-5.53 2.6L33.97 37l1.333-.627-1.56-3.64A2 2 0 0 1 34.687 30.157z" class="color2b2b37 svgShape"></path><path fill="#004080" d="M35.391,24.55a6,6,0,0,1-7.912-2.908l-5.1-10.83-.442.208-2.77,1.3,3.29,7.1A3.087,3.087,0,0,1,24,19a2.995,2.995,0,0,1,.97,5.83L27.37,30l.4.87,2.76-1.29,5.53-2.6,2.77-1.3L37.8,23.455Z" class="color004080 svgShape"></path><path fill="#02b9f2" d="M31,15a1,1,0,0,1-.9-.553l-2-4a1,1,0,0,1,1.79-.894l2,4A1,1,0,0,1,31,15Z" class="color02b9f2 svgShape"></path><path fill="#004080" d="M36.867,41.629a1,1,0,0,1-1.289-.472l-.272-.545L32.69,41.79,34,45l4.32-2.02,6.7-3.12L49,38l-.595-1.509Z" class="color004080 svgShape"></path><path fill="#8698ba" d="M41.913,42.15l3.448-1.533-.341-.757-6.7,3.12L39,44.46a.906.906,0,0,0,1.22.45l.619-.295A1.993,1.993,0,0,1,41.913,42.15Z" class="color8698ba svgShape"></path><path fill="#c1cfe8" d="M41.007,51.553a1,1,0,0,1-1.355-.6l-.329-.987L37,51l1,3,9-4-.323-.968Z" class="colorc1cfe8 svgShape"></path><circle cx="24" cy="22" r="2" fill="#8394b2" class="color8394b2 svgShape"></circle><circle cx="23" cy="31" r="1" fill="#8394b2" class="color8394b2 svgShape"></circle><circle cx="28" cy="50" r="1" fill="#8394b2" class="color8394b2 svgShape"></circle><path fill="#004080" d="M30.779,57H27.447c-3.17,0-5.32-2.9-4.1-5.538l2.136-4.616a3.3,3.3,0,0,1,2.569-1.811A5.652,5.652,0,0,0,27.438,45a5.561,5.561,0,0,0-4.975,3.075L17,59H33V55A2.119,2.119,0,0,1,30.779,57Z" class="color004080 svgShape"></path><path fill="#2b2b37" d="M52.691,60.058A1.992,1.992,0,0,1,51,61H21a1,1,0,0,1,0-2H18a3.906,3.906,0,0,0-.97.12,4.1,4.1,0,0,0-1.86,1.05A4.025,4.025,0,0,0,14,63H54A3.975,3.975,0,0,0,52.691,60.058Z" class="color2b2b37 svgShape"></path><path fill="#c1cfe8" d="M24.97 24.83A2.826 2.826 0 0 1 24 25a3 3 0 0 1-3-3 2.955 2.955 0 0 1 .15-.95L21 21H16l2.188 4.377a2.009 2.009 0 0 1-.6 2.487C16.112 29.013 14 31.45 14 36a16.936 16.936 0 0 0 3.136 9.947 2.019 2.019 0 0 1 .028 2.306l-1.109 1.665A16.612 16.612 0 0 0 20 53l2.46-4.93a5.852 5.852 0 0 1 .63-.98L23 47c-4.11-.82-5.52-6.37-5.89-8.32A6.5 6.5 0 0 1 17 37.44a6.872 6.872 0 0 1 2.75-5.5L21 31a2 2 0 0 1 3.73-1h2.64zM49.913 34.038a1 1 0 0 0-1.322-.5l-19 8.554A1 1 0 0 0 29 43v2.226a5.567 5.567 0 0 1 1.95 1.024A.982.982 0 0 0 31 46V43.646L49.409 35.36A1 1 0 0 0 49.913 34.038z" class="colorc1cfe8 svgShape"></path><path fill="#8394b2" d="M46.406,47.914a1,1,0,1,0-.812-1.828L33,51.683v2.189Z" class="color8394b2 svgShape"></path></g></svg></g></svg>