<svg id="SvgjsSvg1162" width="256" height="256" xmlns="http://www.w3.org/2000/svg" version="1.1" xmlns:xlink="http://www.w3.org/1999/xlink" xmlns:svgjs="http://svgjs.com/svgjs"><defs id="SvgjsDefs1163"></defs><g id="SvgjsG1164"><svg xmlns="http://www.w3.org/2000/svg" viewBox="0 0 135 135" width="256" height="256"><path fill="#76819f" d="m36.319 7.697 2.396 5.784-12.723 5.27-2.396-5.784a1.222 1.222 0 0 1 .662-1.597l10.465-4.334a1.222 1.222 0 0 1 1.596.66z" class="color76819f svgShape"></path><path fill="#a3acbf" d="M37.11 9.615a1.24 1.24 0 0 0-1.483-.442l-10.46 4.342a1.195 1.195 0 0 0-.66 1.591l1.508 3.64-.027.002-2.394-5.779a1.231 1.231 0 0 1 .664-1.603L34.725 7.04a1.217 1.217 0 0 1 1.592.66l.793 1.915z" class="colora3acbf svgShape"></path><path fill="#76819f" d="m32.178 4.255 1.356 3.273-8.087 3.35-1.356-3.273a1.222 1.222 0 0 1 .661-1.596l5.83-2.415a1.222 1.222 0 0 1 1.596.661z" class="color76819f svgShape"></path><path fill="#a3acbf" d="M32.8 5.78a1.223 1.223 0 0 0-1.494-.447L25.48 7.747a1.217 1.217 0 0 0-.66 1.591l.635 1.533-.004.01-1.356-3.272a1.232 1.232 0 0 1 .664-1.603l5.827-2.413a1.217 1.217 0 0 1 1.591.66l.624 1.527z" class="colora3acbf svgShape"></path><path fill="#f3fcff" d="M42.588 14.522 60.42 57.333a2.444 2.444 0 0 1-1.322 3.193L45.014 66.36a2.444 2.444 0 0 1-3.192-1.323L23.99 22.226a2.444 2.444 0 0 1 1.322-3.193l14.083-5.834a2.444 2.444 0 0 1 3.193 1.323z" class="colorf3fcff svgShape"></path><path fill="#00c5ea" d="m59.101 60.525-14.08 5.832c-1.196.496-2.525 0-3.092-1.122-.042-.057-.075-.137-.102-.2l-3.365-8.126L27.95 31.794l-3.96-9.563a2.448 2.448 0 0 1 1.323-3.194l14.084-5.843a2.449 2.449 0 0 1 3.194 1.323l8.279 19.986 3.452 8.094 1.97 4.757 2.73 6.593 1.403 3.384a2.448 2.448 0 0 1-1.324 3.194z" class="color00c5ea svgShape"></path><path fill="#52eef8" d="M50.87 34.503 38.462 56.909 27.95 31.794l14.317-17.835c.127.172.238.35.324.558l8.279 19.986zm5.422 12.851L41.929 65.235c-.042-.057-.075-.137-.102-.2l-1.884-4.55 14.379-17.888 1.97 4.757z" opacity=".5" class="color52eef8 svgShape"></path><path d="m59.101 60.525-14.08 5.832c-1.196.496-2.525 0-3.092-1.122-.042-.057-.075-.137-.102-.2l-1.401-3.385 18.597-7.703 1.402 3.384a2.448 2.448 0 0 1-1.324 3.194z" opacity=".05" fill="#000000" class="color000 svgShape"></path><path fill="#76819f" d="m63.294 61.43-20.607 8.543a1.222 1.222 0 0 1-1.597-.66l-.47-1.138-.466-1.123a1.222 1.222 0 0 1 .661-1.596l20.607-8.544a1.222 1.222 0 0 1 1.597.66l.47 1.138.466 1.123a1.222 1.222 0 0 1-.661 1.596z" class="color76819f svgShape"></path><path fill="#00c5ea" d="M31.329 96.082v6.12h43.684a1.78 1.78 0 0 0 1.77-1.77V97.84c0-.968-.802-1.758-1.77-1.758H31.33z" class="color00c5ea svgShape"></path><path fill="#52eef8" d="M31.329 96.082v2.57h43.684c.968 0 1.77.79 1.77 1.758v-2.57c0-.968-.802-1.758-1.77-1.758H31.33z" opacity=".5" class="color52eef8 svgShape"></path><path d="M31.329 96.082v6.12h4.818a12.1 12.1 0 0 0 .4-3.072c0-1.057-.133-2.08-.4-3.048h-4.818z" opacity=".05" fill="#000000" class="color000 svgShape"></path><path fill="#00c5ea" d="M3.5 71.502a37.03 37.03 0 0 0 9.68 25.025 37.526 37.526 0 0 0 11.628 8.645V92.588a26.243 26.243 0 0 1-4.55-4.407 26.205 26.205 0 0 1-5.953-16.679c0-8.768 4.25-16.535 10.815-21.342a26.288 26.288 0 0 1 8.134-4.05V34.961a36.804 36.804 0 0 0-13.764 5.92C9.82 47.6 3.5 58.817 3.5 71.502z" class="color00c5ea svgShape"></path><path d="M19.49 40.88a11.81 11.81 0 0 0 5.63 9.28 26.288 26.288 0 0 1 8.134-4.05V34.961a36.804 36.804 0 0 0-13.764 5.92zm-6.31 55.647a37.526 37.526 0 0 0 11.628 8.645V92.588a26.243 26.243 0 0 1-4.55-4.407 11.867 11.867 0 0 0-7.077 8.346z" opacity=".05" fill="#000000" class="color000 svgShape"></path><path fill="#76819f" d="M35.344 109.92a2.786 2.786 0 0 0 2.786 2.786h27.046a2.786 2.786 0 0 0 0-5.572H38.13a2.786 2.786 0 0 0-2.786 2.786z" class="color76819f svgShape"></path><path fill="#a3acbf" d="M35.346 109.924c0 .333.055.656.178.957a2.78 2.78 0 0 1 2.603-1.814h27.05c.768 0 1.469.311 1.97.812.278.278.5.623.634 1.002.122-.3.178-.624.178-.958a2.83 2.83 0 0 0-.812-1.98c-.501-.5-1.202-.812-1.97-.812h-27.05a2.785 2.785 0 0 0-2.781 2.793z" class="colora3acbf svgShape"></path><path fill="#00c5ea" d="M9.843 117.646h21.486v-17.158H16.675l-1.97 4.94z" class="color00c5ea svgShape"></path><path d="M14.705 105.428c2.092 3.327 5.797 5.541 10.003 5.541 2.448 0 4.73-.745 6.62-2.036v-8.445H16.676l-1.97 4.94z" opacity=".05" fill="#000000" class="color000 svgShape"></path><path fill="#76819f" d="m3.501 119.417.001 5.413c0 .973.79 1.763 1.764 1.762l80.663-.02c.973 0 1.763-.79 1.762-1.764l-.001-5.413c0-.974-.79-1.763-1.764-1.763l-80.662.021c-.974 0-1.763.79-1.763 1.764z" class="color76819f svgShape"></path><path d="M3.5 122.364v2.47c0 .968.79 1.758 1.77 1.758l80.659-.023c.968 0 1.758-.79 1.758-1.757v-2.47c0 .967-.79 1.757-1.758 1.757l-80.66.023c-.979 0-1.769-.79-1.769-1.758z" opacity=".05" fill="#000000" class="color000 svgShape"></path><path fill="#a3acbf" d="M3.5 119.415v2.459c0-.968.79-1.758 1.758-1.758l80.67-.022c.969 0 1.759.79 1.759 1.758v-2.46c0-.967-.79-1.757-1.758-1.757l-80.67.022c-.969 0-1.759.79-1.759 1.758z" class="colora3acbf svgShape"></path><path fill="#76819f" d="M76.03 126.583v1.643a3.269 3.269 0 0 0 3.274 3.274 3.271 3.271 0 0 0 3.286-3.274v-1.643h-6.56zm-67.428 0v1.643a3.269 3.269 0 0 0 3.274 3.274 3.271 3.271 0 0 0 3.286-3.274v-1.643h-6.56z" class="color76819f svgShape"></path><path fill="#00c5ea" d="M16.23 99.13c0 4.699 3.8 8.5 8.48 8.5 4.7 0 8.5-3.801 8.5-8.5 0-4.681-3.8-8.482-8.5-8.482-4.68 0-8.48 3.8-8.48 8.482z" class="color00c5ea svgShape"></path><path fill="#ffffff" d="M20.596 99.134a4.123 4.123 0 1 0 8.247 0 4.123 4.123 0 0 0-8.247 0z" class="colorfff svgShape"></path><circle cx="31.271" cy="40.101" r="8.463" fill="#00c5ea" class="color00c5ea svgShape"></circle><path fill="#52eef8" d="M24.441 35.128a8.248 8.248 0 0 1 4.985-1.647c4.673 0 8.468 3.794 8.468 8.468 0 1.87-.601 3.594-1.636 4.985a8.45 8.45 0 0 0 3.472-6.832c0-4.674-3.783-8.468-8.457-8.468a8.408 8.408 0 0 0-6.832 3.494z" opacity=".5" class="color52eef8 svgShape"></path><circle cx="31.271" cy="40.101" r="4.246" fill="#ffffff" class="colorfff svgShape"></circle><path fill="#d4f4ff" d="M128.51 131.499H99.738a5.121 5.121 0 0 1 5.12-5.121h18.531a5.121 5.121 0 0 1 5.121 5.12z" class="colord4f4ff svgShape"></path><path fill="#f3fcff" d="M128.51 131.499h-.39a5.133 5.133 0 0 0-4.73-3.15h-18.53c-1.42 0-2.7.57-3.62 1.5-.47.47-.85 1.03-1.11 1.65h-.39c0-1.42.57-2.7 1.5-3.62.92-.93 2.2-1.5 3.62-1.5h18.53c2.83 0 5.12 2.29 5.12 5.12z" class="colorf3fcff svgShape"></path><path fill="#d4f4ff" d="M115.875 70.98v42.099a7.65 7.65 0 0 1-7.654 7.654 7.586 7.586 0 0 1-5.408-2.246 7.586 7.586 0 0 1-2.246-5.408v-42.1h15.308z" class="colord4f4ff svgShape"></path><path fill="#00ffc1" d="M100.57 84.951v28.13a7.652 7.652 0 1 0 15.303 0v-28.13c-8.29-1.727-10.602 1.765-15.304 0z" class="color00ffc1 svgShape"></path><path fill="#34e0aa" d="M115.873 84.948v28.133a7.658 7.658 0 0 1-7.652 7.652c-3.137 0-5.841-1.9-7.027-4.604a7.653 7.653 0 0 0 4.196 1.25 7.65 7.65 0 0 0 7.652-7.652v-25.2c.867.077 1.798.204 2.83.421z" class="color34e0aa svgShape"></path><path fill="#ffffff" d="M111.811 95.983c0 .911-.739 1.667-1.65 1.667a1.668 1.668 0 0 1-1.666-1.667c0-.927.739-1.666 1.667-1.666.91 0 1.65.739 1.65 1.666zm4.062 7.373v5.37a2.69 2.69 0 0 1-2.665-2.684c0-1.497 1.169-2.665 2.665-2.686z" class="colorfff svgShape"></path><path fill="#d4f4ff" d="M117.892 68.373v.002a2.602 2.602 0 0 1-2.602 2.602h-14.139a2.602 2.602 0 0 1-2.601-2.602v-.002a2.602 2.602 0 0 1 2.601-2.601h14.14a2.602 2.602 0 0 1 2.601 2.601z" class="colord4f4ff svgShape"></path><path fill="#ffffff" d="M106.33 80.191v21.157a.638.638 0 0 1-.638.638h-2.18a.638.638 0 0 1-.638-.638V80.191c0-.352.285-.638.638-.638h2.18c.352 0 .638.286.638.638z" opacity=".3" class="colorfff svgShape"></path><g fill="#384b7d" class="color384b7d svgShape"><path d="M3.784 131H3.5a.5.5 0 1 0 0 1h.284a.5.5 0 1 0 0-1zm125.49 0h-.289a5.627 5.627 0 0 0-5.596-5.123h-1.458V80.735c0-2.482-2.019-4.5-4.5-4.5h-1.058V71.27a3.1 3.1 0 0 0 2.019-2.897 3.105 3.105 0 0 0-3.102-3.102h-14.139a3.106 3.106 0 0 0-3.101 3.103c0 1.328.843 2.455 2.02 2.896v4.964h-3.473a.5.5 0 1 0 0 1h3.472v35.847c0 2.186.85 4.232 2.391 5.76a8.099 8.099 0 0 0 5.76 2.39c4.496 0 8.153-3.655 8.153-8.15V77.235h1.058c1.93 0 3.5 1.57 3.5 3.5v45.142h-16.073A5.626 5.626 0 0 0 99.263 131H81.85a3.746 3.746 0 0 0 1.239-2.774v-1.144h2.838a2.265 2.265 0 0 0 2.262-2.263v-5.413a2.265 2.265 0 0 0-2.262-2.263H31.83v-6.723h3.064a3.283 3.283 0 0 0 3.236 2.787h27.046c1.811 0 3.286-1.475 3.286-3.287s-1.475-3.286-3.286-3.286H38.13a3.283 3.283 0 0 0-3.236 2.786H31.83v-4.806a9.002 9.002 0 0 0 1.139-1.914H75.01a2.273 2.273 0 0 0 2.27-2.27v-2.59a2.268 2.268 0 0 0-2.27-2.26H32.975c-1.382-3.192-4.566-5.432-8.265-5.432-.607 0-1.199.062-1.772.177A25.957 25.957 0 0 1 14.811 71.5 25.899 25.899 0 0 1 28.5 48.62a8.838 8.838 0 0 0 5.885-.126l6.78 16.275-.542.225a1.725 1.725 0 0 0-.932 2.25l.937 2.26a1.72 1.72 0 0 0 2.25.931l20.606-8.544a1.726 1.726 0 0 0 .932-2.25l-.937-2.26a1.722 1.722 0 0 0-2.25-.931l-.541.224-17.638-42.347c-.628-1.501-2.35-2.213-3.84-1.59l-.225.093-2.205-5.325a1.724 1.724 0 0 0-2.25-.931l-.727.301-1.164-2.811a1.71 1.71 0 0 0-.932-.932 1.714 1.714 0 0 0-1.318 0l-5.83 2.414a1.725 1.725 0 0 0-.931 2.25l1.165 2.811-.728.302a1.714 1.714 0 0 0-.932.931c-.176.425-.176.893 0 1.318l2.203 5.32-.219.09a2.954 2.954 0 0 0-1.59 3.854l3.98 9.555a8.982 8.982 0 0 0-5.04 6.47A37.766 37.766 0 0 0 3 71.5a37.75 37.75 0 0 0 12.762 28.278c.03.417.082.828.167 1.228l-6.428 16.137H5.265a2.265 2.265 0 0 0-2.263 2.263v5.413a2.265 2.265 0 0 0 2.263 2.263h2.838v1.144c0 1.1.48 2.083 1.235 2.774H6.076a.5.5 0 1 0 0 1h123.198a.5.5 0 1 0 0-1zM99.05 68.374c0-1.16.942-2.102 2.101-2.102h14.139c1.16 0 2.102.942 2.102 2.102v.001c0 1.16-.943 2.102-2.102 2.102h-14.139a2.105 2.105 0 0 1-2.101-2.103zm2.02 3.103h14.303v4.758h-14.304v-4.758zm7.15 48.756c-1.905 0-3.7-.745-5.054-2.1a7.056 7.056 0 0 1-2.097-5.051V85.639c1.987.575 3.516.295 5.54-.11 2.213-.445 4.727-.934 8.764-.16v17.542a3.154 3.154 0 0 0-2.665 3.13c0 1.565 1.159 2.872 2.665 3.13v3.91c0 3.944-3.209 7.152-7.152 7.152zm7.153-12.072a2.2 2.2 0 0 1-1.665-2.12c0-1.035.7-1.887 1.665-2.122v4.242zm0-23.806c-4.12-.759-6.803-.24-8.962.193-1.892.38-3.415.672-5.342.039v-7.352h14.304v7.12zm-10.515 42.522h18.53a4.628 4.628 0 0 1 4.595 4.122h-27.718a4.628 4.628 0 0 1 4.593-4.122zM38.13 107.634h27.046c1.26 0 2.286 1.026 2.286 2.286s-1.025 2.287-2.286 2.287H38.13c-1.26 0-2.286-1.026-2.286-2.287s1.025-2.286 2.286-2.286zM24.943 6.47l5.83-2.414a.722.722 0 0 1 .943.39l1.164 2.811-7.162 2.967-1.165-2.81a.724.724 0 0 1 .39-.944zm50.068 90.11c.7 0 1.27.565 1.27 1.26v2.59c0 .689-.582 1.27-1.27 1.27H33.332a8.884 8.884 0 0 0 .004-5.12h41.675zm-42.3 2.55c0 4.41-3.589 8-8.001 8-4.4 0-7.98-3.59-7.98-8 0-4.402 3.58-7.982 7.98-7.982 4.412 0 8 3.58 8 7.981zm28.902-41.756a.724.724 0 0 1 .944.39l.936 2.26a.724.724 0 0 1-.39.943l-20.607 8.544a.72.72 0 0 1-.943-.39l-.937-2.26a.724.724 0 0 1 .39-.944l20.607-8.543zm-37.554-44.6a.711.711 0 0 1 0-.55.713.713 0 0 1 .39-.391l10.465-4.335a.724.724 0 0 1 .943.39l2.205 5.322-11.8 4.885-2.203-5.32zm.393 9.264a1.951 1.951 0 0 1 1.049-2.546c-.428.177 6.107-2.525 14.093-5.831a1.944 1.944 0 0 1 2.534 1.051l17.637 42.345-17.675 7.329-6.786-16.292c2.92-1.48 4.93-4.502 4.93-7.993 0-4.623-3.519-8.438-8.018-8.912l-2.014-4.85a.5.5 0 1 0-.924.382l1.837 4.425a8.91 8.91 0 0 0-2.677.458l-3.986-9.566zm6.819 10.1c4.39 0 7.962 3.572 7.962 7.963s-3.572 7.963-7.962 7.963-7.962-3.572-7.962-7.963 3.57-7.963 7.962-7.963zM4 71.5a36.761 36.761 0 0 1 18.33-31.811c-.007.137-.021.273-.021.412 0 3.527 2.052 6.576 5.02 8.038a26.888 26.888 0 0 0-13.518 23.36c0 7.181 2.913 14.102 8.01 19.134-3.322 1.134-5.77 4.159-6.056 7.788A36.742 36.742 0 0 1 4 71.5zm8.144 41.707h9.757a.5.5 0 1 0 0-1h-9.358l3.857-9.678c1.341 3.281 4.558 5.6 8.31 5.6a8.958 8.958 0 0 0 6.12-2.419v11.43H10.576l1.568-3.933zm69.946 15.02A2.782 2.782 0 0 1 79.305 131a2.777 2.777 0 0 1-2.775-2.774v-1.143h5.56v1.143zm-78.088-3.408v-5.413c0-.697.566-1.263 1.263-1.263h80.663c.696 0 1.262.566 1.262 1.263v5.413c0 .696-.566 1.263-1.262 1.263H5.265a1.264 1.264 0 0 1-1.263-1.263zm5.1 3.407v-1.143h5.56v1.143c0 1.53-1.25 2.774-2.786 2.774a2.777 2.777 0 0 1-2.773-2.774zm5.32 2.774a3.746 3.746 0 0 0 1.24-2.774v-1.144H75.53v1.144c0 1.1.482 2.083 1.236 2.774H14.423zm117.078 0h-.226a.5.5 0 1 0 0 1h.226a.5.5 0 1 0 0-1z" fill="#000000" class="color000 svgShape"></path><path d="m29.372 24.337-1.067-2.578a.5.5 0 0 0-.924.383l1.067 2.578a.5.5 0 0 0 .924-.383zm-4.657 79.425a4.633 4.633 0 0 0 4.629-4.628 4.624 4.624 0 1 0-4.629 4.628zm0-8.247a3.628 3.628 0 0 1 3.629 3.62c0 2-1.628 3.627-3.63 3.627a3.623 3.623 0 0 1 0-7.247zm6.556-50.668c2.617 0 4.747-2.129 4.747-4.746s-2.13-4.746-4.747-4.746-4.747 2.129-4.747 4.746 2.13 4.746 4.747 4.746zm0-8.492c2.066 0 3.747 1.68 3.747 3.746s-1.681 3.746-3.747 3.746-3.747-1.68-3.747-3.746 1.681-3.746 3.747-3.746zm-6.551 75.852h-.593a.5.5 0 1 0 0 1h.593a.5.5 0 1 0 0-1zm79.407-.452a.479.479 0 0 0-.474.491.475.475 0 0 0 .949 0 .479.479 0 0 0-.475-.491zm7.134-2.232a.641.641 0 0 0-.636.658.636.636 0 0 0 1.271 0 .641.641 0 0 0-.635-.658zm-6.188-10.965a.476.476 0 0 0-.471.488.472.472 0 0 0 .943 0 .476.476 0 0 0-.472-.488zm5.09-4.741a2.169 2.169 0 0 0-2.168 2.166c0 1.195.972 2.167 2.167 2.167a2.16 2.16 0 0 0 2.15-2.167 2.16 2.16 0 0 0-2.15-2.166zm0 3.333a1.168 1.168 0 0 1-1.168-1.167 1.16 1.16 0 1 1 2.316 0 1.16 1.16 0 0 1-1.149 1.167zm-5.381-4.658c.35 0 .635-.285.635-.636a.641.641 0 0 0-.635-.657.641.641 0 0 0-.636.657c0 .35.285.636.636.636z" fill="#000000" class="color000 svgShape"></path></g></svg></g></svg>