<svg id="SvgjsSvg1598" width="256" height="256" xmlns="http://www.w3.org/2000/svg" version="1.1" xmlns:xlink="http://www.w3.org/1999/xlink" xmlns:svgjs="http://svgjs.com/svgjs"><defs id="SvgjsDefs1599"></defs><g id="SvgjsG1600"><svg xmlns="http://www.w3.org/2000/svg" enable-background="new 0 0 512 512" viewBox="0 0 512 512" width="256" height="256"><path fill="#788c99" d="M160,391.5H97.4c-5,0-9,4.1-9,9v20c0,5,4,9,9,9H160c5,0,9-4.1,9-9v-20C169,395.5,165,391.5,160,391.5z" class="color788C99 svgShape"></path><rect width="99.5" height="15.9" x="148.3" y="402.6" fill="#788c99" class="color788C99 svgShape"></rect><rect width="42.4" height="15.9" x="205.3" y="402.6" fill="#455d6d" class="color455D6D svgShape"></rect><path fill="#dadedf" d="M299.1,103.5c-2.3,0-4.6,0.2-6.8,0.2v52.4c2.3-0.1,4.5-0.3,6.8-0.3c67.2,0,121.7,54.5,121.7,121.8    c0,67.2-54.5,121.7-121.7,121.7c-8.2,0-16.3-0.8-24-2.4v53c7.9,1.1,15.9,1.7,24,1.7c96.1,0,174.1-77.9,174.1-174.1    C473.1,181.4,395.2,103.5,299.1,103.5z" class="colorDADEDF svgShape"></path><path fill="#455d6d" d="M297,399.2c-7.5-0.1-14.9-0.9-22-2.3v53c7.9,1.1,15.9,1.7,24,1.7c15.1,0,29.7-1.9,43.7-5.5L297,413.7    V399.2z" opacity=".3" class="color455D6D svgShape"></path><polygon fill="#788c99" points="358.5 469.8 358.5 510 213.1 510 213.1 363.2 285.8 363.2 285.8 417.1" class="color788C99 svgShape"></polygon><polygon fill="#455d6d" points="285.8 367.3 271.8 363.2 213.1 363.2 213.1 373.4 285.8 395.1" class="color455D6D svgShape"></polygon><rect width="61.3" height="75.4" x="260.8" y="9.5" fill="#788c99" transform="rotate(17.617 291.394 47.181)" class="color788C99 svgShape"></rect><path fill="#455d6d" d="M320.3,64.8l-62.7-19.9c-4.2-1.3-8.7,1-10.1,5.2l-4.1,12.9c-1.3,4.2,1,8.7,5.2,10.1l62.7,19.9    c4.2,1.3,8.7-1,10.1-5.2l4.1-12.9C326.9,70.7,324.5,66.2,320.3,64.8z" class="color455D6D svgShape"></path><rect width="61.3" height="75.4" x="211.7" y="164.1" fill="#788c99" transform="rotate(-162.383 242.355 201.775)" class="color788C99 svgShape"></rect><path fill="#455d6d" d="M204.5,212.5l62.7,19.9c4.2,1.3,8.7-1,10.1-5.2l4.1-12.9c1.3-4.2-1-8.7-5.2-10.1l-62.7-19.9    c-4.2-1.3-8.7,1-10.1,5.2l-4.1,12.9C197.9,206.7,200.2,211.2,204.5,212.5z" class="color455D6D svgShape"></path><path fill="#eff2f3" d="M325.4,82.8l-82.3-26.1c-6.1-1.9-12.6,1.4-14.5,7.5L191,182.5c-1.9,6.1,1.4,12.6,7.5,14.5l82.3,26.1    c6.1,1.9,12.6-1.4,14.5-7.5l37.6-118.4C334.9,91.2,331.5,84.7,325.4,82.8z" class="colorEFF2F3 svgShape"></path><path fill="#788c99" d="M351.2,111.4c-16.5-5.2-34-7.9-52.1-7.9c-8.2,0-16.2,0.6-24,1.7v53c7.8-1.6,15.8-2.4,24-2.4    c15.4,0,30.1,3,43.7,8.2c8.1-8.3,13.2-19.7,13.2-32.3C355.9,124.5,354.2,117.6,351.2,111.4z" class="color788C99 svgShape"></path><path fill="#788c99" d="M333.3,92.1c-6.9-4.1-14.9-6.5-23.6-6.5c-25.5,0-46.2,20.7-46.2,46.2c0,24.7,19.4,44.8,43.8,46.1    l25.6-80.5C333.5,95.5,333.6,93.8,333.3,92.1z" class="color788C99 svgShape"></path><rect width="284.5" height="54.1" x="38.9" y="455.9" fill="#788c99" class="color788C99 svgShape"></rect><rect width="268.5" height="26.6" x="42.3" y="327.4" fill="#dadedf" transform="rotate(16.605 176.52 340.641)" class="colorDADEDF svgShape"></rect><circle cx="309.8" cy="131.7" r="39.3" fill="#41b1df" class="color41B1DF svgShape"></circle><circle cx="309.8" cy="131.7" r="21.9" fill="#fad882" class="colorFAD882 svgShape"></circle><rect width="319.6" height="10.6" x="38.9" y="499.4" fill="#455d6d" class="color455D6D svgShape"></rect></svg></g></svg>